<svg xmlns="http://www.w3.org/2000/svg" width="300" height="300" viewBox="0 0 300 300" style="display:block;" data-reactid="53"><path fill="rgba(0,0,0,0.1)" d="M2.5 5a2.5 2.5 0 1 1 0-5 2.5 2.5 0 0 1 0 5zm10 0a2.5 2.5 0 1 1 0-5 2.5 2.5 0 0 1 0 5zm10 0a2.5 2.5 0 1 1 0-5 2.5 2.5 0 0 1 0 5zm10 0a2.5 2.5 0 1 1 0-5 2.5 2.5 0 0 1 0 5zm10 0a2.5 2.5 0 1 1 0-5 2.5 2.5 0 0 1 0 5zm10 0a2.5 2.5 0 1 1 0-5 2.5 2.5 0 0 1 0 5zm10 0a2.5 2.5 0 1 1 0-5 2.5 2.5 0 0 1 0 5zm10 0a2.5 2.5 0 1 1 0-5 2.5 2.5 0 0 1 0 5zm10 0a2.5 2.5 0 1 1 0-5 2.5 2.5 0 0 1 0 5zm10 0a2.5 2.5 0 1 1 0-5 2.5 2.5 0 0 1 0 5zm10 0a2.5 2.5 0 1 1 0-5 2.5 2.5 0 0 1 0 5zm10 0a2.5 2.5 0 1 1 0-5 2.5 2.5 0 0 1 0 5zm10 0a2.5 2.5 0 1 1 0-5 2.5 2.5 0 0 1 0 5zm10 0a2.5 2.5 0 1 1 0-5 2.5 2.5 0 0 1 0 5zm10 0a2.5 2.5 0 1 1 0-5 2.5 2.5 0 0 1 0 5zM2.5 15a2.5 2.5 0 1 1 0-5 2.5 2.5 0 0 1 0 5zm10 0a2.5 2.5 0 1 1 0-5 2.5 2.5 0 0 1 0 5zm10 0a2.5 2.5 0 1 1 0-5 2.5 2.5 0 0 1 0 5zm10 0a2.5 2.5 0 1 1 0-5 2.5 2.5 0 0 1 0 5zm10 0a2.5 2.5 0 1 1 0-5 2.5 2.5 0 0 1 0 5zm10 0a2.5 2.5 0 1 1 0-5 2.5 2.5 0 0 1 0 5zm10 0a2.5 2.5 0 1 1 0-5 2.5 2.5 0 0 1 0 5zm10 0a2.5 2.5 0 1 1 0-5 2.5 2.5 0 0 1 0 5zm10 0a2.5 2.5 0 1 1 0-5 2.5 2.5 0 0 1 0 5zm10 0a2.5 2.5 0 1 1 0-5 2.5 2.5 0 0 1 0 5zm10 0a2.5 2.5 0 1 1 0-5 2.5 2.5 0 0 1 0 5zm10 0a2.5 2.5 0 1 1 0-5 2.5 2.5 0 0 1 0 5zm10 0a2.5 2.5 0 1 1 0-5 2.5 2.5 0 0 1 0 5zm10 0a2.5 2.5 0 1 1 0-5 2.5 2.5 0 0 1 0 5zm10 0a2.5 2.5 0 1 1 0-5 2.5 2.5 0 0 1 0 5zM2.5 25a2.5 2.5 0 1 1 0-5 2.5 2.5 0 0 1 0 5zm10 0a2.5 2.5 0 1 1 0-5 2.5 2.5 0 0 1 0 5zm10 0a2.5 2.5 0 1 1 0-5 2.5 2.5 0 0 1 0 5zm10 0a2.5 2.5 0 1 1 0-5 2.5 2.5 0 0 1 0 5zm10 0a2.5 2.5 0 1 1 0-5 2.5 2.5 0 0 1 0 5zm10 0a2.5 2.5 0 1 1 0-5 2.5 2.5 0 0 1 0 5zm10 0a2.5 2.5 0 1 1 0-5 2.5 2.5 0 0 1 0 5zm10 0a2.5 2.5 0 1 1 0-5 2.5 2.5 0 0 1 0 5zm10 0a2.5 2.5 0 1 1 0-5 2.5 2.5 0 0 1 0 5zm10 0a2.5 2.5 0 1 1 0-5 2.5 2.5 0 0 1 0 5zm10 0a2.5 2.5 0 1 1 0-5 2.5 2.5 0 0 1 0 5zm10 0a2.5 2.5 0 1 1 0-5 2.5 2.5 0 0 1 0 5zm10 0a2.5 2.5 0 1 1 0-5 2.5 2.5 0 0 1 0 5zm10 0a2.5 2.5 0 1 1 0-5 2.5 2.5 0 0 1 0 5zm10 0a2.5 2.5 0 1 1 0-5 2.5 2.5 0 0 1 0 5zM2.5 35a2.5 2.5 0 1 1 0-5 2.5 2.5 0 0 1 0 5zm10 0a2.5 2.5 0 1 1 0-5 2.5 2.5 0 0 1 0 5zm10 0a2.5 2.5 0 1 1 0-5 2.5 2.5 0 0 1 0 5zm10 0a2.5 2.5 0 1 1 0-5 2.5 2.5 0 0 1 0 5zm10 0a2.5 2.5 0 1 1 0-5 2.5 2.5 0 0 1 0 5zm10 0a2.5 2.5 0 1 1 0-5 2.5 2.5 0 0 1 0 5zm10 0a2.5 2.5 0 1 1 0-5 2.5 2.5 0 0 1 0 5zm10 0a2.5 2.5 0 1 1 0-5 2.5 2.5 0 0 1 0 5zm10 0a2.5 2.5 0 1 1 0-5 2.5 2.5 0 0 1 0 5zm10 0a2.5 2.5 0 1 1 0-5 2.5 2.5 0 0 1 0 5zm10 0a2.5 2.5 0 1 1 0-5 2.5 2.5 0 0 1 0 5zm10 0a2.5 2.5 0 1 1 0-5 2.5 2.5 0 0 1 0 5zm10 0a2.5 2.5 0 1 1 0-5 2.5 2.5 0 0 1 0 5zm10 0a2.5 2.5 0 1 1 0-5 2.5 2.5 0 0 1 0 5zm10 0a2.5 2.5 0 1 1 0-5 2.5 2.5 0 0 1 0 5zM2.5 45a2.5 2.5 0 1 1 0-5 2.5 2.5 0 0 1 0 5zm10 0a2.5 2.5 0 1 1 0-5 2.5 2.5 0 0 1 0 5zm10 0a2.5 2.5 0 1 1 0-5 2.5 2.5 0 0 1 0 5zm10 0a2.5 2.5 0 1 1 0-5 2.5 2.5 0 0 1 0 5zm10 0a2.5 2.5 0 1 1 0-5 2.5 2.5 0 0 1 0 5zm10 0a2.5 2.5 0 1 1 0-5 2.5 2.5 0 0 1 0 5zm10 0a2.5 2.5 0 1 1 0-5 2.5 2.5 0 0 1 0 5zm10 0a2.5 2.5 0 1 1 0-5 2.5 2.5 0 0 1 0 5zm10 0a2.5 2.5 0 1 1 0-5 2.5 2.5 0 0 1 0 5zm10 0a2.5 2.5 0 1 1 0-5 2.5 2.5 0 0 1 0 5zm10 0a2.5 2.5 0 1 1 0-5 2.5 2.5 0 0 1 0 5zm10 0a2.5 2.5 0 1 1 0-5 2.5 2.5 0 0 1 0 5zm10 0a2.5 2.5 0 1 1 0-5 2.5 2.5 0 0 1 0 5zm10 0a2.5 2.5 0 1 1 0-5 2.5 2.5 0 0 1 0 5zm10 0a2.5 2.5 0 1 1 0-5 2.5 2.5 0 0 1 0 5zM2.5 55a2.5 2.5 0 1 1 0-5 2.5 2.5 0 0 1 0 5zm10 0a2.5 2.5 0 1 1 0-5 2.5 2.5 0 0 1 0 5zm10 0a2.5 2.5 0 1 1 0-5 2.5 2.5 0 0 1 0 5zm10 0a2.5 2.5 0 1 1 0-5 2.5 2.5 0 0 1 0 5zm10 0a2.5 2.5 0 1 1 0-5 2.5 2.5 0 0 1 0 5zm10 0a2.5 2.5 0 1 1 0-5 2.5 2.5 0 0 1 0 5zm10 0a2.5 2.5 0 1 1 0-5 2.5 2.5 0 0 1 0 5zm10 0a2.5 2.5 0 1 1 0-5 2.5 2.5 0 0 1 0 5zm10 0a2.5 2.5 0 1 1 0-5 2.5 2.5 0 0 1 0 5zm10 0a2.5 2.5 0 1 1 0-5 2.5 2.5 0 0 1 0 5zm10 0a2.5 2.5 0 1 1 0-5 2.5 2.5 0 0 1 0 5zm10 0a2.5 2.5 0 1 1 0-5 2.5 2.5 0 0 1 0 5zm10 0a2.5 2.5 0 1 1 0-5 2.5 2.5 0 0 1 0 5zm10 0a2.5 2.5 0 1 1 0-5 2.5 2.5 0 0 1 0 5zm10 0a2.5 2.5 0 1 1 0-5 2.5 2.5 0 0 1 0 5zM2.5 65a2.5 2.5 0 1 1 0-5 2.5 2.5 0 0 1 0 5zm10 0a2.5 2.5 0 1 1 0-5 2.5 2.5 0 0 1 0 5zm10 0a2.5 2.5 0 1 1 0-5 2.5 2.5 0 0 1 0 5zm10 0a2.5 2.5 0 1 1 0-5 2.5 2.5 0 0 1 0 5zm10 0a2.5 2.5 0 1 1 0-5 2.5 2.5 0 0 1 0 5zm10 0a2.5 2.5 0 1 1 0-5 2.5 2.5 0 0 1 0 5zm10 0a2.5 2.5 0 1 1 0-5 2.5 2.5 0 0 1 0 5zm10 0a2.5 2.5 0 1 1 0-5 2.5 2.5 0 0 1 0 5zm10 0a2.5 2.5 0 1 1 0-5 2.5 2.5 0 0 1 0 5zm10 0a2.5 2.5 0 1 1 0-5 2.5 2.5 0 0 1 0 5zm10 0a2.5 2.5 0 1 1 0-5 2.5 2.5 0 0 1 0 5zm10 0a2.5 2.5 0 1 1 0-5 2.5 2.5 0 0 1 0 5zm10 0a2.5 2.5 0 1 1 0-5 2.5 2.5 0 0 1 0 5zm10 0a2.5 2.5 0 1 1 0-5 2.5 2.5 0 0 1 0 5zm10 0a2.5 2.5 0 1 1 0-5 2.5 2.5 0 0 1 0 5zM2.5 75a2.5 2.5 0 1 1 0-5 2.5 2.5 0 0 1 0 5zm10 0a2.5 2.5 0 1 1 0-5 2.5 2.5 0 0 1 0 5zm10 0a2.5 2.5 0 1 1 0-5 2.5 2.5 0 0 1 0 5zm10 0a2.5 2.5 0 1 1 0-5 2.5 2.5 0 0 1 0 5zm10 0a2.5 2.5 0 1 1 0-5 2.5 2.5 0 0 1 0 5zm10 0a2.5 2.5 0 1 1 0-5 2.5 2.5 0 0 1 0 5zm10 0a2.5 2.5 0 1 1 0-5 2.5 2.5 0 0 1 0 5zm10 0a2.5 2.5 0 1 1 0-5 2.5 2.5 0 0 1 0 5zm10 0a2.5 2.5 0 1 1 0-5 2.5 2.5 0 0 1 0 5zm10 0a2.5 2.5 0 1 1 0-5 2.5 2.5 0 0 1 0 5zm10 0a2.5 2.5 0 1 1 0-5 2.5 2.5 0 0 1 0 5zm10 0a2.5 2.5 0 1 1 0-5 2.5 2.5 0 0 1 0 5zm10 0a2.5 2.5 0 1 1 0-5 2.5 2.5 0 0 1 0 5zm10 0a2.5 2.5 0 1 1 0-5 2.5 2.5 0 0 1 0 5zm10 0a2.5 2.5 0 1 1 0-5 2.5 2.5 0 0 1 0 5zM2.5 85a2.5 2.5 0 1 1 0-5 2.5 2.5 0 0 1 0 5zm10 0a2.5 2.5 0 1 1 0-5 2.5 2.5 0 0 1 0 5zm10 0a2.5 2.5 0 1 1 0-5 2.5 2.5 0 0 1 0 5zm10 0a2.5 2.5 0 1 1 0-5 2.5 2.5 0 0 1 0 5zm10 0a2.5 2.5 0 1 1 0-5 2.5 2.5 0 0 1 0 5zm10 0a2.5 2.5 0 1 1 0-5 2.5 2.5 0 0 1 0 5zm10 0a2.5 2.5 0 1 1 0-5 2.5 2.5 0 0 1 0 5zm10 0a2.5 2.5 0 1 1 0-5 2.5 2.5 0 0 1 0 5zm10 0a2.5 2.5 0 1 1 0-5 2.5 2.5 0 0 1 0 5zm10 0a2.5 2.5 0 1 1 0-5 2.5 2.5 0 0 1 0 5zm10 0a2.5 2.5 0 1 1 0-5 2.5 2.5 0 0 1 0 5zm10 0a2.5 2.5 0 1 1 0-5 2.5 2.5 0 0 1 0 5zm10 0a2.5 2.5 0 1 1 0-5 2.5 2.5 0 0 1 0 5zm10 0a2.5 2.5 0 1 1 0-5 2.5 2.5 0 0 1 0 5zm10 0a2.5 2.5 0 1 1 0-5 2.5 2.5 0 0 1 0 5zM2.5 95a2.5 2.5 0 1 1 0-5 2.5 2.5 0 0 1 0 5zm10 0a2.5 2.5 0 1 1 0-5 2.5 2.5 0 0 1 0 5zm10 0a2.5 2.5 0 1 1 0-5 2.5 2.5 0 0 1 0 5zm10 0a2.5 2.5 0 1 1 0-5 2.5 2.5 0 0 1 0 5zm10 0a2.5 2.5 0 1 1 0-5 2.5 2.5 0 0 1 0 5zm10 0a2.5 2.5 0 1 1 0-5 2.5 2.5 0 0 1 0 5zm10 0a2.5 2.5 0 1 1 0-5 2.5 2.5 0 0 1 0 5zm10 0a2.5 2.5 0 1 1 0-5 2.5 2.5 0 0 1 0 5zm10 0a2.5 2.5 0 1 1 0-5 2.5 2.5 0 0 1 0 5zm10 0a2.5 2.5 0 1 1 0-5 2.5 2.5 0 0 1 0 5zm10 0a2.5 2.5 0 1 1 0-5 2.5 2.5 0 0 1 0 5zm10 0a2.5 2.5 0 1 1 0-5 2.5 2.5 0 0 1 0 5zm10 0a2.5 2.5 0 1 1 0-5 2.5 2.5 0 0 1 0 5zm10 0a2.5 2.5 0 1 1 0-5 2.5 2.5 0 0 1 0 5zm10 0a2.5 2.5 0 1 1 0-5 2.5 2.5 0 0 1 0 5zm-140 10a2.5 2.5 0 1 1 0-5 2.5 2.5 0 0 1 0 5zm10 0a2.5 2.5 0 1 1 0-5 2.5 2.5 0 0 1 0 5zm10 0a2.5 2.5 0 1 1 0-5 2.5 2.5 0 0 1 0 5zm10 0a2.5 2.5 0 1 1 0-5 2.5 2.5 0 0 1 0 5zm10 0a2.5 2.5 0 1 1 0-5 2.5 2.5 0 0 1 0 5zm10 0a2.5 2.5 0 1 1 0-5 2.5 2.5 0 0 1 0 5zm10 0a2.5 2.5 0 1 1 0-5 2.5 2.5 0 0 1 0 5zm10 0a2.5 2.5 0 1 1 0-5 2.5 2.5 0 0 1 0 5zm10 0a2.5 2.5 0 1 1 0-5 2.5 2.5 0 0 1 0 5zm10 0a2.5 2.5 0 1 1 0-5 2.5 2.5 0 0 1 0 5zm10 0a2.5 2.5 0 1 1 0-5 2.5 2.5 0 0 1 0 5zm10 0a2.5 2.5 0 1 1 0-5 2.5 2.5 0 0 1 0 5zm10 0a2.5 2.5 0 1 1 0-5 2.5 2.5 0 0 1 0 5zm10 0a2.5 2.5 0 1 1 0-5 2.5 2.5 0 0 1 0 5zm10 0a2.5 2.5 0 1 1 0-5 2.5 2.5 0 0 1 0 5zm-140 10a2.5 2.5 0 1 1 0-5 2.5 2.5 0 0 1 0 5zm10 0a2.5 2.5 0 1 1 0-5 2.5 2.5 0 0 1 0 5zm10 0a2.5 2.5 0 1 1 0-5 2.5 2.5 0 0 1 0 5zm10 0a2.5 2.5 0 1 1 0-5 2.5 2.5 0 0 1 0 5zm10 0a2.5 2.5 0 1 1 0-5 2.5 2.5 0 0 1 0 5zm10 0a2.5 2.5 0 1 1 0-5 2.5 2.5 0 0 1 0 5zm10 0a2.5 2.5 0 1 1 0-5 2.5 2.5 0 0 1 0 5zm10 0a2.5 2.5 0 1 1 0-5 2.5 2.5 0 0 1 0 5zm10 0a2.5 2.5 0 1 1 0-5 2.5 2.5 0 0 1 0 5zm10 0a2.5 2.5 0 1 1 0-5 2.5 2.5 0 0 1 0 5zm10 0a2.5 2.5 0 1 1 0-5 2.5 2.5 0 0 1 0 5zm10 0a2.5 2.5 0 1 1 0-5 2.5 2.5 0 0 1 0 5zm10 0a2.5 2.5 0 1 1 0-5 2.5 2.5 0 0 1 0 5zm10 0a2.5 2.5 0 1 1 0-5 2.5 2.5 0 0 1 0 5zm10 0a2.5 2.5 0 1 1 0-5 2.5 2.5 0 0 1 0 5zm-140 10a2.5 2.5 0 1 1 0-5 2.5 2.5 0 0 1 0 5zm10 0a2.5 2.5 0 1 1 0-5 2.5 2.5 0 0 1 0 5zm10 0a2.5 2.5 0 1 1 0-5 2.5 2.5 0 0 1 0 5zm10 0a2.5 2.5 0 1 1 0-5 2.5 2.5 0 0 1 0 5zm10 0a2.5 2.5 0 1 1 0-5 2.5 2.5 0 0 1 0 5zm10 0a2.5 2.5 0 1 1 0-5 2.5 2.5 0 0 1 0 5zm10 0a2.5 2.5 0 1 1 0-5 2.5 2.5 0 0 1 0 5zm10 0a2.5 2.5 0 1 1 0-5 2.5 2.5 0 0 1 0 5zm10 0a2.5 2.5 0 1 1 0-5 2.5 2.5 0 0 1 0 5zm10 0a2.5 2.5 0 1 1 0-5 2.5 2.5 0 0 1 0 5zm10 0a2.5 2.5 0 1 1 0-5 2.5 2.5 0 0 1 0 5zm10 0a2.5 2.5 0 1 1 0-5 2.5 2.5 0 0 1 0 5zm10 0a2.5 2.5 0 1 1 0-5 2.5 2.5 0 0 1 0 5zm10 0a2.5 2.5 0 1 1 0-5 2.5 2.5 0 0 1 0 5zm10 0a2.5 2.5 0 1 1 0-5 2.5 2.5 0 0 1 0 5zm10-120a2.5 2.5 0 1 1 0-5 2.5 2.5 0 0 1 0 5zm10 0a2.5 2.5 0 1 1 0-5 2.5 2.5 0 0 1 0 5zm10 0a2.5 2.5 0 1 1 0-5 2.5 2.5 0 0 1 0 5zm10 0a2.5 2.5 0 1 1 0-5 2.5 2.5 0 0 1 0 5zm10 0a2.5 2.5 0 1 1 0-5 2.5 2.5 0 0 1 0 5zm10 0a2.5 2.5 0 1 1 0-5 2.5 2.5 0 0 1 0 5zm10 0a2.5 2.5 0 1 1 0-5 2.5 2.5 0 0 1 0 5zm10 0a2.5 2.5 0 1 1 0-5 2.5 2.5 0 0 1 0 5zm10 0a2.5 2.5 0 1 1 0-5 2.5 2.5 0 0 1 0 5zm10 0a2.5 2.5 0 1 1 0-5 2.5 2.5 0 0 1 0 5zm10 0a2.5 2.5 0 1 1 0-5 2.5 2.5 0 0 1 0 5zm10 0a2.5 2.5 0 1 1 0-5 2.5 2.5 0 0 1 0 5zm10 0a2.5 2.5 0 1 1 0-5 2.5 2.5 0 0 1 0 5zm10 0a2.5 2.5 0 1 1 0-5 2.5 2.5 0 0 1 0 5zm10 0a2.5 2.5 0 1 1 0-5 2.5 2.5 0 0 1 0 5zm-140 10a2.5 2.5 0 1 1 0-5 2.5 2.5 0 0 1 0 5zm10 0a2.5 2.5 0 1 1 0-5 2.5 2.5 0 0 1 0 5zm10 0a2.5 2.5 0 1 1 0-5 2.5 2.5 0 0 1 0 5zm10 0a2.5 2.5 0 1 1 0-5 2.5 2.5 0 0 1 0 5zm10 0a2.5 2.5 0 1 1 0-5 2.5 2.5 0 0 1 0 5zm10 0a2.5 2.5 0 1 1 0-5 2.5 2.5 0 0 1 0 5zm10 0a2.5 2.5 0 1 1 0-5 2.5 2.5 0 0 1 0 5zm10 0a2.5 2.5 0 1 1 0-5 2.5 2.5 0 0 1 0 5zm10 0a2.5 2.5 0 1 1 0-5 2.5 2.5 0 0 1 0 5zm10 0a2.5 2.5 0 1 1 0-5 2.5 2.5 0 0 1 0 5zm10 0a2.5 2.5 0 1 1 0-5 2.5 2.5 0 0 1 0 5zm10 0a2.5 2.5 0 1 1 0-5 2.5 2.5 0 0 1 0 5zm10 0a2.5 2.5 0 1 1 0-5 2.5 2.5 0 0 1 0 5zm10 0a2.5 2.5 0 1 1 0-5 2.5 2.5 0 0 1 0 5zm10 0a2.5 2.5 0 1 1 0-5 2.5 2.5 0 0 1 0 5zm-140 10a2.5 2.5 0 1 1 0-5 2.5 2.5 0 0 1 0 5zm10 0a2.5 2.5 0 1 1 0-5 2.5 2.5 0 0 1 0 5zm10 0a2.5 2.5 0 1 1 0-5 2.5 2.5 0 0 1 0 5zm10 0a2.5 2.5 0 1 1 0-5 2.5 2.5 0 0 1 0 5zm10 0a2.5 2.5 0 1 1 0-5 2.5 2.5 0 0 1 0 5zm10 0a2.5 2.5 0 1 1 0-5 2.5 2.5 0 0 1 0 5zm10 0a2.5 2.5 0 1 1 0-5 2.5 2.5 0 0 1 0 5zm10 0a2.5 2.5 0 1 1 0-5 2.5 2.5 0 0 1 0 5zm10 0a2.5 2.5 0 1 1 0-5 2.5 2.5 0 0 1 0 5zm10 0a2.5 2.5 0 1 1 0-5 2.5 2.5 0 0 1 0 5zm10 0a2.5 2.5 0 1 1 0-5 2.5 2.5 0 0 1 0 5zm10 0a2.5 2.5 0 1 1 0-5 2.5 2.5 0 0 1 0 5zm10 0a2.5 2.5 0 1 1 0-5 2.5 2.5 0 0 1 0 5zm10 0a2.5 2.5 0 1 1 0-5 2.5 2.5 0 0 1 0 5zm10 0a2.5 2.5 0 1 1 0-5 2.5 2.5 0 0 1 0 5zm-140 10a2.5 2.5 0 1 1 0-5 2.5 2.5 0 0 1 0 5zm10 0a2.5 2.5 0 1 1 0-5 2.5 2.5 0 0 1 0 5zm10 0a2.5 2.5 0 1 1 0-5 2.5 2.5 0 0 1 0 5zm10 0a2.5 2.5 0 1 1 0-5 2.5 2.5 0 0 1 0 5zm10 0a2.5 2.5 0 1 1 0-5 2.5 2.5 0 0 1 0 5zm10 0a2.5 2.5 0 1 1 0-5 2.5 2.5 0 0 1 0 5zm10 0a2.5 2.5 0 1 1 0-5 2.5 2.5 0 0 1 0 5zm10 0a2.5 2.5 0 1 1 0-5 2.5 2.5 0 0 1 0 5zm10 0a2.5 2.5 0 1 1 0-5 2.5 2.5 0 0 1 0 5zm10 0a2.5 2.5 0 1 1 0-5 2.5 2.5 0 0 1 0 5zm10 0a2.5 2.5 0 1 1 0-5 2.5 2.5 0 0 1 0 5zm10 0a2.5 2.5 0 1 1 0-5 2.5 2.5 0 0 1 0 5zm10 0a2.5 2.5 0 1 1 0-5 2.5 2.5 0 0 1 0 5zm10 0a2.5 2.5 0 1 1 0-5 2.5 2.5 0 0 1 0 5zm10 0a2.5 2.5 0 1 1 0-5 2.5 2.5 0 0 1 0 5zm-140 10a2.5 2.5 0 1 1 0-5 2.5 2.5 0 0 1 0 5zm10 0a2.5 2.5 0 1 1 0-5 2.5 2.5 0 0 1 0 5zm10 0a2.5 2.5 0 1 1 0-5 2.5 2.5 0 0 1 0 5zm10 0a2.5 2.5 0 1 1 0-5 2.5 2.5 0 0 1 0 5zm10 0a2.5 2.5 0 1 1 0-5 2.5 2.5 0 0 1 0 5zm10 0a2.5 2.5 0 1 1 0-5 2.5 2.5 0 0 1 0 5zm10 0a2.5 2.5 0 1 1 0-5 2.5 2.5 0 0 1 0 5zm10 0a2.5 2.5 0 1 1 0-5 2.5 2.5 0 0 1 0 5zm10 0a2.5 2.5 0 1 1 0-5 2.5 2.5 0 0 1 0 5zm10 0a2.5 2.5 0 1 1 0-5 2.5 2.5 0 0 1 0 5zm10 0a2.5 2.5 0 1 1 0-5 2.5 2.5 0 0 1 0 5zm10 0a2.5 2.5 0 1 1 0-5 2.5 2.5 0 0 1 0 5zm10 0a2.5 2.5 0 1 1 0-5 2.5 2.5 0 0 1 0 5zm10 0a2.5 2.5 0 1 1 0-5 2.5 2.5 0 0 1 0 5zm10 0a2.5 2.5 0 1 1 0-5 2.5 2.5 0 0 1 0 5zm-140 10a2.5 2.5 0 1 1 0-5 2.5 2.5 0 0 1 0 5zm10 0a2.5 2.5 0 1 1 0-5 2.5 2.5 0 0 1 0 5zm10 0a2.5 2.5 0 1 1 0-5 2.5 2.5 0 0 1 0 5zm10 0a2.5 2.5 0 1 1 0-5 2.5 2.5 0 0 1 0 5zm10 0a2.5 2.5 0 1 1 0-5 2.5 2.5 0 0 1 0 5zm10 0a2.5 2.5 0 1 1 0-5 2.5 2.5 0 0 1 0 5zm10 0a2.5 2.5 0 1 1 0-5 2.5 2.5 0 0 1 0 5zm10 0a2.5 2.5 0 1 1 0-5 2.5 2.5 0 0 1 0 5zm10 0a2.5 2.5 0 1 1 0-5 2.5 2.5 0 0 1 0 5zm10 0a2.5 2.5 0 1 1 0-5 2.5 2.5 0 0 1 0 5zm10 0a2.5 2.5 0 1 1 0-5 2.5 2.5 0 0 1 0 5zm10 0a2.5 2.5 0 1 1 0-5 2.5 2.5 0 0 1 0 5zm10 0a2.5 2.5 0 1 1 0-5 2.5 2.5 0 0 1 0 5zm10 0a2.5 2.5 0 1 1 0-5 2.5 2.5 0 0 1 0 5zm10 0a2.5 2.5 0 1 1 0-5 2.5 2.5 0 0 1 0 5zm-140 10a2.5 2.5 0 1 1 0-5 2.5 2.5 0 0 1 0 5zm10 0a2.5 2.5 0 1 1 0-5 2.5 2.5 0 0 1 0 5zm10 0a2.5 2.5 0 1 1 0-5 2.5 2.5 0 0 1 0 5zm10 0a2.5 2.5 0 1 1 0-5 2.5 2.5 0 0 1 0 5zm10 0a2.5 2.5 0 1 1 0-5 2.5 2.5 0 0 1 0 5zm10 0a2.5 2.5 0 1 1 0-5 2.5 2.5 0 0 1 0 5zm10 0a2.5 2.5 0 1 1 0-5 2.5 2.5 0 0 1 0 5zm10 0a2.5 2.5 0 1 1 0-5 2.5 2.5 0 0 1 0 5zm10 0a2.5 2.5 0 1 1 0-5 2.5 2.5 0 0 1 0 5zm10 0a2.5 2.5 0 1 1 0-5 2.5 2.5 0 0 1 0 5zm10 0a2.5 2.5 0 1 1 0-5 2.5 2.5 0 0 1 0 5zm10 0a2.5 2.5 0 1 1 0-5 2.5 2.5 0 0 1 0 5zm10 0a2.5 2.5 0 1 1 0-5 2.5 2.5 0 0 1 0 5zm10 0a2.5 2.5 0 1 1 0-5 2.5 2.5 0 0 1 0 5zm10 0a2.5 2.5 0 1 1 0-5 2.5 2.5 0 0 1 0 5zm-140 10a2.5 2.5 0 1 1 0-5 2.5 2.5 0 0 1 0 5zm10 0a2.5 2.5 0 1 1 0-5 2.5 2.5 0 0 1 0 5zm10 0a2.5 2.5 0 1 1 0-5 2.5 2.5 0 0 1 0 5zm10 0a2.5 2.5 0 1 1 0-5 2.5 2.5 0 0 1 0 5zm10 0a2.5 2.5 0 1 1 0-5 2.5 2.5 0 0 1 0 5zm10 0a2.5 2.5 0 1 1 0-5 2.5 2.5 0 0 1 0 5zm10 0a2.5 2.5 0 1 1 0-5 2.5 2.5 0 0 1 0 5zm10 0a2.5 2.5 0 1 1 0-5 2.5 2.5 0 0 1 0 5zm10 0a2.5 2.5 0 1 1 0-5 2.5 2.5 0 0 1 0 5zm10 0a2.5 2.5 0 1 1 0-5 2.5 2.5 0 0 1 0 5zm10 0a2.5 2.5 0 1 1 0-5 2.5 2.5 0 0 1 0 5zm10 0a2.5 2.5 0 1 1 0-5 2.5 2.5 0 0 1 0 5zm10 0a2.5 2.5 0 1 1 0-5 2.5 2.5 0 0 1 0 5zm10 0a2.5 2.5 0 1 1 0-5 2.5 2.5 0 0 1 0 5zm10 0a2.5 2.5 0 1 1 0-5 2.5 2.5 0 0 1 0 5zm-140 10a2.5 2.5 0 1 1 0-5 2.5 2.5 0 0 1 0 5zm10 0a2.5 2.5 0 1 1 0-5 2.5 2.5 0 0 1 0 5zm10 0a2.5 2.5 0 1 1 0-5 2.5 2.5 0 0 1 0 5zm10 0a2.5 2.5 0 1 1 0-5 2.5 2.5 0 0 1 0 5zm10 0a2.5 2.5 0 1 1 0-5 2.5 2.5 0 0 1 0 5zm10 0a2.5 2.5 0 1 1 0-5 2.5 2.5 0 0 1 0 5zm10 0a2.5 2.5 0 1 1 0-5 2.5 2.5 0 0 1 0 5zm10 0a2.5 2.5 0 1 1 0-5 2.5 2.5 0 0 1 0 5zm10 0a2.5 2.5 0 1 1 0-5 2.5 2.5 0 0 1 0 5zm10 0a2.5 2.5 0 1 1 0-5 2.5 2.5 0 0 1 0 5zm10 0a2.5 2.5 0 1 1 0-5 2.5 2.5 0 0 1 0 5zm10 0a2.5 2.5 0 1 1 0-5 2.5 2.5 0 0 1 0 5zm10 0a2.5 2.5 0 1 1 0-5 2.5 2.5 0 0 1 0 5zm10 0a2.5 2.5 0 1 1 0-5 2.5 2.5 0 0 1 0 5zm10 0a2.5 2.5 0 1 1 0-5 2.5 2.5 0 0 1 0 5zm-140 10a2.5 2.5 0 1 1 0-5 2.5 2.5 0 0 1 0 5zm10 0a2.5 2.5 0 1 1 0-5 2.5 2.5 0 0 1 0 5zm10 0a2.5 2.5 0 1 1 0-5 2.5 2.5 0 0 1 0 5zm10 0a2.5 2.5 0 1 1 0-5 2.5 2.5 0 0 1 0 5zm10 0a2.5 2.5 0 1 1 0-5 2.5 2.5 0 0 1 0 5zm10 0a2.5 2.5 0 1 1 0-5 2.5 2.5 0 0 1 0 5zm10 0a2.5 2.5 0 1 1 0-5 2.5 2.5 0 0 1 0 5zm10 0a2.5 2.5 0 1 1 0-5 2.5 2.5 0 0 1 0 5zm10 0a2.5 2.5 0 1 1 0-5 2.5 2.5 0 0 1 0 5zm10 0a2.5 2.5 0 1 1 0-5 2.5 2.5 0 0 1 0 5zm10 0a2.5 2.5 0 1 1 0-5 2.5 2.5 0 0 1 0 5zm10 0a2.5 2.5 0 1 1 0-5 2.5 2.5 0 0 1 0 5zm10 0a2.5 2.5 0 1 1 0-5 2.5 2.5 0 0 1 0 5zm10 0a2.5 2.5 0 1 1 0-5 2.5 2.5 0 0 1 0 5zm10 0a2.5 2.5 0 1 1 0-5 2.5 2.5 0 0 1 0 5zm-140 10a2.5 2.5 0 1 1 0-5 2.5 2.5 0 0 1 0 5zm10 0a2.5 2.5 0 1 1 0-5 2.5 2.5 0 0 1 0 5zm10 0a2.5 2.5 0 1 1 0-5 2.5 2.5 0 0 1 0 5zm10 0a2.5 2.5 0 1 1 0-5 2.5 2.5 0 0 1 0 5zm10 0a2.5 2.5 0 1 1 0-5 2.5 2.5 0 0 1 0 5zm10 0a2.5 2.5 0 1 1 0-5 2.5 2.5 0 0 1 0 5zm10 0a2.5 2.5 0 1 1 0-5 2.5 2.5 0 0 1 0 5zm10 0a2.5 2.5 0 1 1 0-5 2.5 2.5 0 0 1 0 5zm10 0a2.5 2.5 0 1 1 0-5 2.5 2.5 0 0 1 0 5zm10 0a2.5 2.5 0 1 1 0-5 2.5 2.5 0 0 1 0 5zm10 0a2.5 2.5 0 1 1 0-5 2.5 2.5 0 0 1 0 5zm10 0a2.5 2.5 0 1 1 0-5 2.5 2.5 0 0 1 0 5zm10 0a2.5 2.5 0 1 1 0-5 2.5 2.5 0 0 1 0 5zm10 0a2.5 2.5 0 1 1 0-5 2.5 2.5 0 0 1 0 5zm10 0a2.5 2.5 0 1 1 0-5 2.5 2.5 0 0 1 0 5zm-140 10a2.5 2.5 0 1 1 0-5 2.5 2.5 0 0 1 0 5zm10 0a2.5 2.5 0 1 1 0-5 2.5 2.5 0 0 1 0 5zm10 0a2.5 2.5 0 1 1 0-5 2.5 2.5 0 0 1 0 5zm10 0a2.5 2.5 0 1 1 0-5 2.5 2.5 0 0 1 0 5zm10 0a2.5 2.5 0 1 1 0-5 2.5 2.5 0 0 1 0 5zm10 0a2.5 2.5 0 1 1 0-5 2.5 2.5 0 0 1 0 5zm10 0a2.5 2.5 0 1 1 0-5 2.5 2.5 0 0 1 0 5zm10 0a2.5 2.5 0 1 1 0-5 2.5 2.5 0 0 1 0 5zm10 0a2.5 2.5 0 1 1 0-5 2.5 2.5 0 0 1 0 5zm10 0a2.5 2.5 0 1 1 0-5 2.5 2.5 0 0 1 0 5zm10 0a2.5 2.5 0 1 1 0-5 2.5 2.5 0 0 1 0 5zm10 0a2.5 2.5 0 1 1 0-5 2.5 2.5 0 0 1 0 5zm10 0a2.5 2.5 0 1 1 0-5 2.5 2.5 0 0 1 0 5zm10 0a2.5 2.5 0 1 1 0-5 2.5 2.5 0 0 1 0 5zm10 0a2.5 2.5 0 1 1 0-5 2.5 2.5 0 0 1 0 5zm-140 10a2.5 2.5 0 1 1 0-5 2.5 2.5 0 0 1 0 5zm10 0a2.5 2.5 0 1 1 0-5 2.5 2.5 0 0 1 0 5zm10 0a2.5 2.5 0 1 1 0-5 2.5 2.5 0 0 1 0 5zm10 0a2.5 2.5 0 1 1 0-5 2.5 2.5 0 0 1 0 5zm10 0a2.5 2.5 0 1 1 0-5 2.5 2.5 0 0 1 0 5zm10 0a2.5 2.5 0 1 1 0-5 2.5 2.5 0 0 1 0 5zm10 0a2.5 2.5 0 1 1 0-5 2.5 2.5 0 0 1 0 5zm10 0a2.5 2.5 0 1 1 0-5 2.5 2.5 0 0 1 0 5zm10 0a2.5 2.5 0 1 1 0-5 2.5 2.5 0 0 1 0 5zm10 0a2.5 2.5 0 1 1 0-5 2.5 2.5 0 0 1 0 5zm10 0a2.5 2.5 0 1 1 0-5 2.5 2.5 0 0 1 0 5zm10 0a2.5 2.5 0 1 1 0-5 2.5 2.5 0 0 1 0 5zm10 0a2.5 2.5 0 1 1 0-5 2.5 2.5 0 0 1 0 5zm10 0a2.5 2.5 0 1 1 0-5 2.5 2.5 0 0 1 0 5zm10 0a2.5 2.5 0 1 1 0-5 2.5 2.5 0 0 1 0 5zm-290 10a2.5 2.5 0 1 1 0-5 2.5 2.5 0 0 1 0 5zm10 0a2.5 2.5 0 1 1 0-5 2.5 2.5 0 0 1 0 5zm10 0a2.5 2.5 0 1 1 0-5 2.5 2.5 0 0 1 0 5zm10 0a2.5 2.5 0 1 1 0-5 2.5 2.5 0 0 1 0 5zm10 0a2.5 2.5 0 1 1 0-5 2.5 2.5 0 0 1 0 5zm10 0a2.5 2.5 0 1 1 0-5 2.5 2.5 0 0 1 0 5zm10 0a2.5 2.5 0 1 1 0-5 2.5 2.5 0 0 1 0 5zm10 0a2.5 2.5 0 1 1 0-5 2.5 2.5 0 0 1 0 5zm10 0a2.5 2.5 0 1 1 0-5 2.5 2.5 0 0 1 0 5zm10 0a2.5 2.5 0 1 1 0-5 2.5 2.5 0 0 1 0 5zm10 0a2.5 2.5 0 1 1 0-5 2.5 2.5 0 0 1 0 5zm10 0a2.5 2.5 0 1 1 0-5 2.5 2.5 0 0 1 0 5zm10 0a2.5 2.5 0 1 1 0-5 2.5 2.5 0 0 1 0 5zm10 0a2.5 2.5 0 1 1 0-5 2.5 2.5 0 0 1 0 5zm10 0a2.5 2.5 0 1 1 0-5 2.5 2.5 0 0 1 0 5zm-140 10a2.5 2.5 0 1 1 0-5 2.5 2.5 0 0 1 0 5zm10 0a2.5 2.5 0 1 1 0-5 2.5 2.5 0 0 1 0 5zm10 0a2.5 2.5 0 1 1 0-5 2.5 2.5 0 0 1 0 5zm10 0a2.5 2.5 0 1 1 0-5 2.5 2.5 0 0 1 0 5zm10 0a2.5 2.5 0 1 1 0-5 2.5 2.5 0 0 1 0 5zm10 0a2.5 2.5 0 1 1 0-5 2.5 2.5 0 0 1 0 5zm10 0a2.5 2.5 0 1 1 0-5 2.5 2.5 0 0 1 0 5zm10 0a2.5 2.5 0 1 1 0-5 2.5 2.5 0 0 1 0 5zm10 0a2.5 2.5 0 1 1 0-5 2.5 2.5 0 0 1 0 5zm10 0a2.5 2.5 0 1 1 0-5 2.5 2.5 0 0 1 0 5zm10 0a2.5 2.5 0 1 1 0-5 2.5 2.5 0 0 1 0 5zm10 0a2.5 2.5 0 1 1 0-5 2.5 2.5 0 0 1 0 5zm10 0a2.5 2.5 0 1 1 0-5 2.5 2.5 0 0 1 0 5zm10 0a2.5 2.5 0 1 1 0-5 2.5 2.5 0 0 1 0 5zm10 0a2.5 2.5 0 1 1 0-5 2.5 2.5 0 0 1 0 5zm-140 10a2.5 2.5 0 1 1 0-5 2.5 2.5 0 0 1 0 5zm10 0a2.5 2.5 0 1 1 0-5 2.5 2.5 0 0 1 0 5zm10 0a2.5 2.5 0 1 1 0-5 2.5 2.5 0 0 1 0 5zm10 0a2.5 2.5 0 1 1 0-5 2.5 2.5 0 0 1 0 5zm10 0a2.5 2.5 0 1 1 0-5 2.5 2.5 0 0 1 0 5zm10 0a2.5 2.5 0 1 1 0-5 2.5 2.5 0 0 1 0 5zm10 0a2.5 2.5 0 1 1 0-5 2.5 2.5 0 0 1 0 5zm10 0a2.5 2.5 0 1 1 0-5 2.5 2.5 0 0 1 0 5zm10 0a2.5 2.5 0 1 1 0-5 2.5 2.5 0 0 1 0 5zm10 0a2.5 2.5 0 1 1 0-5 2.5 2.5 0 0 1 0 5zm10 0a2.5 2.5 0 1 1 0-5 2.5 2.5 0 0 1 0 5zm10 0a2.5 2.5 0 1 1 0-5 2.5 2.5 0 0 1 0 5zm10 0a2.5 2.5 0 1 1 0-5 2.5 2.5 0 0 1 0 5zm10 0a2.5 2.5 0 1 1 0-5 2.5 2.5 0 0 1 0 5zm10 0a2.5 2.5 0 1 1 0-5 2.5 2.5 0 0 1 0 5zm-140 10a2.5 2.5 0 1 1 0-5 2.5 2.5 0 0 1 0 5zm10 0a2.5 2.5 0 1 1 0-5 2.5 2.5 0 0 1 0 5zm10 0a2.5 2.5 0 1 1 0-5 2.5 2.5 0 0 1 0 5zm10 0a2.5 2.5 0 1 1 0-5 2.5 2.5 0 0 1 0 5zm10 0a2.5 2.5 0 1 1 0-5 2.5 2.5 0 0 1 0 5zm10 0a2.5 2.5 0 1 1 0-5 2.5 2.5 0 0 1 0 5zm10 0a2.5 2.5 0 1 1 0-5 2.5 2.5 0 0 1 0 5zm10 0a2.5 2.5 0 1 1 0-5 2.5 2.5 0 0 1 0 5zm10 0a2.5 2.5 0 1 1 0-5 2.5 2.5 0 0 1 0 5zm10 0a2.5 2.5 0 1 1 0-5 2.5 2.5 0 0 1 0 5zm10 0a2.5 2.5 0 1 1 0-5 2.5 2.5 0 0 1 0 5zm10 0a2.5 2.5 0 1 1 0-5 2.5 2.5 0 0 1 0 5zm10 0a2.5 2.5 0 1 1 0-5 2.5 2.5 0 0 1 0 5zm10 0a2.5 2.5 0 1 1 0-5 2.5 2.5 0 0 1 0 5zm10 0a2.5 2.5 0 1 1 0-5 2.5 2.5 0 0 1 0 5zm-140 10a2.5 2.5 0 1 1 0-5 2.5 2.5 0 0 1 0 5zm10 0a2.5 2.5 0 1 1 0-5 2.5 2.5 0 0 1 0 5zm10 0a2.5 2.5 0 1 1 0-5 2.5 2.5 0 0 1 0 5zm10 0a2.5 2.5 0 1 1 0-5 2.5 2.5 0 0 1 0 5zm10 0a2.5 2.5 0 1 1 0-5 2.5 2.5 0 0 1 0 5zm10 0a2.5 2.5 0 1 1 0-5 2.5 2.5 0 0 1 0 5zm10 0a2.5 2.5 0 1 1 0-5 2.5 2.5 0 0 1 0 5zm10 0a2.5 2.5 0 1 1 0-5 2.5 2.5 0 0 1 0 5zm10 0a2.5 2.5 0 1 1 0-5 2.5 2.5 0 0 1 0 5zm10 0a2.5 2.5 0 1 1 0-5 2.5 2.5 0 0 1 0 5zm10 0a2.5 2.5 0 1 1 0-5 2.5 2.5 0 0 1 0 5zm10 0a2.5 2.5 0 1 1 0-5 2.5 2.5 0 0 1 0 5zm10 0a2.5 2.5 0 1 1 0-5 2.5 2.5 0 0 1 0 5zm10 0a2.5 2.5 0 1 1 0-5 2.5 2.5 0 0 1 0 5zm10 0a2.5 2.5 0 1 1 0-5 2.5 2.5 0 0 1 0 5zm-140 10a2.5 2.5 0 1 1 0-5 2.5 2.5 0 0 1 0 5zm10 0a2.5 2.5 0 1 1 0-5 2.5 2.5 0 0 1 0 5zm10 0a2.5 2.5 0 1 1 0-5 2.5 2.5 0 0 1 0 5zm10 0a2.5 2.5 0 1 1 0-5 2.5 2.5 0 0 1 0 5zm10 0a2.5 2.5 0 1 1 0-5 2.5 2.5 0 0 1 0 5zm10 0a2.5 2.5 0 1 1 0-5 2.5 2.5 0 0 1 0 5zm10 0a2.5 2.5 0 1 1 0-5 2.5 2.5 0 0 1 0 5zm10 0a2.5 2.5 0 1 1 0-5 2.5 2.5 0 0 1 0 5zm10 0a2.5 2.5 0 1 1 0-5 2.5 2.5 0 0 1 0 5zm10 0a2.5 2.5 0 1 1 0-5 2.5 2.5 0 0 1 0 5zm10 0a2.5 2.5 0 1 1 0-5 2.5 2.5 0 0 1 0 5zm10 0a2.5 2.5 0 1 1 0-5 2.5 2.5 0 0 1 0 5zm10 0a2.5 2.5 0 1 1 0-5 2.5 2.5 0 0 1 0 5zm10 0a2.5 2.5 0 1 1 0-5 2.5 2.5 0 0 1 0 5zm10 0a2.5 2.5 0 1 1 0-5 2.5 2.5 0 0 1 0 5zm-140 10a2.5 2.5 0 1 1 0-5 2.5 2.5 0 0 1 0 5zm10 0a2.5 2.5 0 1 1 0-5 2.5 2.5 0 0 1 0 5zm10 0a2.5 2.5 0 1 1 0-5 2.5 2.5 0 0 1 0 5zm10 0a2.5 2.5 0 1 1 0-5 2.5 2.5 0 0 1 0 5zm10 0a2.5 2.5 0 1 1 0-5 2.5 2.5 0 0 1 0 5zm10 0a2.5 2.5 0 1 1 0-5 2.5 2.5 0 0 1 0 5zm10 0a2.5 2.5 0 1 1 0-5 2.5 2.5 0 0 1 0 5zm10 0a2.5 2.5 0 1 1 0-5 2.5 2.5 0 0 1 0 5zm10 0a2.5 2.5 0 1 1 0-5 2.5 2.5 0 0 1 0 5zm10 0a2.5 2.5 0 1 1 0-5 2.5 2.5 0 0 1 0 5zm10 0a2.5 2.5 0 1 1 0-5 2.5 2.5 0 0 1 0 5zm10 0a2.5 2.5 0 1 1 0-5 2.5 2.5 0 0 1 0 5zm10 0a2.5 2.5 0 1 1 0-5 2.5 2.5 0 0 1 0 5zm10 0a2.5 2.5 0 1 1 0-5 2.5 2.5 0 0 1 0 5zm10 0a2.5 2.5 0 1 1 0-5 2.5 2.5 0 0 1 0 5zm-140 10a2.5 2.5 0 1 1 0-5 2.5 2.5 0 0 1 0 5zm10 0a2.5 2.5 0 1 1 0-5 2.5 2.5 0 0 1 0 5zm10 0a2.5 2.5 0 1 1 0-5 2.5 2.5 0 0 1 0 5zm10 0a2.5 2.5 0 1 1 0-5 2.5 2.5 0 0 1 0 5zm10 0a2.5 2.5 0 1 1 0-5 2.5 2.5 0 0 1 0 5zm10 0a2.5 2.5 0 1 1 0-5 2.5 2.5 0 0 1 0 5zm10 0a2.5 2.5 0 1 1 0-5 2.5 2.5 0 0 1 0 5zm10 0a2.5 2.5 0 1 1 0-5 2.5 2.5 0 0 1 0 5zm10 0a2.5 2.5 0 1 1 0-5 2.5 2.5 0 0 1 0 5zm10 0a2.5 2.5 0 1 1 0-5 2.5 2.5 0 0 1 0 5zm10 0a2.5 2.5 0 1 1 0-5 2.5 2.5 0 0 1 0 5zm10 0a2.5 2.5 0 1 1 0-5 2.5 2.5 0 0 1 0 5zm10 0a2.5 2.5 0 1 1 0-5 2.5 2.5 0 0 1 0 5zm10 0a2.5 2.5 0 1 1 0-5 2.5 2.5 0 0 1 0 5zm10 0a2.5 2.5 0 1 1 0-5 2.5 2.5 0 0 1 0 5zm-140 10a2.5 2.5 0 1 1 0-5 2.5 2.5 0 0 1 0 5zm10 0a2.5 2.5 0 1 1 0-5 2.5 2.5 0 0 1 0 5zm10 0a2.5 2.5 0 1 1 0-5 2.5 2.5 0 0 1 0 5zm10 0a2.5 2.5 0 1 1 0-5 2.5 2.5 0 0 1 0 5zm10 0a2.5 2.5 0 1 1 0-5 2.5 2.5 0 0 1 0 5zm10 0a2.5 2.5 0 1 1 0-5 2.5 2.5 0 0 1 0 5zm10 0a2.5 2.5 0 1 1 0-5 2.5 2.5 0 0 1 0 5zm10 0a2.5 2.5 0 1 1 0-5 2.5 2.5 0 0 1 0 5zm10 0a2.5 2.5 0 1 1 0-5 2.5 2.5 0 0 1 0 5zm10 0a2.5 2.5 0 1 1 0-5 2.5 2.5 0 0 1 0 5zm10 0a2.5 2.5 0 1 1 0-5 2.5 2.5 0 0 1 0 5zm10 0a2.5 2.5 0 1 1 0-5 2.5 2.5 0 0 1 0 5zm10 0a2.5 2.5 0 1 1 0-5 2.5 2.5 0 0 1 0 5zm10 0a2.5 2.5 0 1 1 0-5 2.5 2.5 0 0 1 0 5zm10 0a2.5 2.5 0 1 1 0-5 2.5 2.5 0 0 1 0 5zm-140 10a2.5 2.5 0 1 1 0-5 2.5 2.5 0 0 1 0 5zm10 0a2.5 2.5 0 1 1 0-5 2.5 2.5 0 0 1 0 5zm10 0a2.5 2.5 0 1 1 0-5 2.5 2.5 0 0 1 0 5zm10 0a2.5 2.5 0 1 1 0-5 2.5 2.5 0 0 1 0 5zm10 0a2.5 2.5 0 1 1 0-5 2.5 2.5 0 0 1 0 5zm10 0a2.5 2.5 0 1 1 0-5 2.5 2.5 0 0 1 0 5zm10 0a2.5 2.5 0 1 1 0-5 2.5 2.5 0 0 1 0 5zm10 0a2.5 2.5 0 1 1 0-5 2.5 2.5 0 0 1 0 5zm10 0a2.5 2.5 0 1 1 0-5 2.5 2.5 0 0 1 0 5zm10 0a2.5 2.5 0 1 1 0-5 2.5 2.5 0 0 1 0 5zm10 0a2.5 2.5 0 1 1 0-5 2.5 2.5 0 0 1 0 5zm10 0a2.5 2.5 0 1 1 0-5 2.5 2.5 0 0 1 0 5zm10 0a2.5 2.5 0 1 1 0-5 2.5 2.5 0 0 1 0 5zm10 0a2.5 2.5 0 1 1 0-5 2.5 2.5 0 0 1 0 5zm10 0a2.5 2.5 0 1 1 0-5 2.5 2.5 0 0 1 0 5zm-140 10a2.5 2.5 0 1 1 0-5 2.5 2.5 0 0 1 0 5zm10 0a2.5 2.5 0 1 1 0-5 2.5 2.5 0 0 1 0 5zm10 0a2.5 2.5 0 1 1 0-5 2.5 2.5 0 0 1 0 5zm10 0a2.5 2.5 0 1 1 0-5 2.5 2.5 0 0 1 0 5zm10 0a2.5 2.5 0 1 1 0-5 2.5 2.5 0 0 1 0 5zm10 0a2.5 2.5 0 1 1 0-5 2.5 2.5 0 0 1 0 5zm10 0a2.5 2.5 0 1 1 0-5 2.5 2.5 0 0 1 0 5zm10 0a2.5 2.5 0 1 1 0-5 2.5 2.5 0 0 1 0 5zm10 0a2.5 2.5 0 1 1 0-5 2.5 2.5 0 0 1 0 5zm10 0a2.5 2.5 0 1 1 0-5 2.5 2.5 0 0 1 0 5zm10 0a2.5 2.5 0 1 1 0-5 2.5 2.5 0 0 1 0 5zm10 0a2.5 2.5 0 1 1 0-5 2.5 2.5 0 0 1 0 5zm10 0a2.5 2.5 0 1 1 0-5 2.5 2.5 0 0 1 0 5zm10 0a2.5 2.5 0 1 1 0-5 2.5 2.5 0 0 1 0 5zm10 0a2.5 2.5 0 1 1 0-5 2.5 2.5 0 0 1 0 5zm-140 10a2.5 2.5 0 1 1 0-5 2.5 2.5 0 0 1 0 5zm10 0a2.5 2.5 0 1 1 0-5 2.5 2.5 0 0 1 0 5zm10 0a2.5 2.5 0 1 1 0-5 2.5 2.5 0 0 1 0 5zm10 0a2.5 2.5 0 1 1 0-5 2.5 2.5 0 0 1 0 5zm10 0a2.5 2.5 0 1 1 0-5 2.5 2.5 0 0 1 0 5zm10 0a2.5 2.5 0 1 1 0-5 2.5 2.5 0 0 1 0 5zm10 0a2.5 2.5 0 1 1 0-5 2.5 2.5 0 0 1 0 5zm10 0a2.5 2.5 0 1 1 0-5 2.5 2.5 0 0 1 0 5zm10 0a2.5 2.5 0 1 1 0-5 2.5 2.5 0 0 1 0 5zm10 0a2.5 2.5 0 1 1 0-5 2.5 2.5 0 0 1 0 5zm10 0a2.5 2.5 0 1 1 0-5 2.5 2.5 0 0 1 0 5zm10 0a2.5 2.5 0 1 1 0-5 2.5 2.5 0 0 1 0 5zm10 0a2.5 2.5 0 1 1 0-5 2.5 2.5 0 0 1 0 5zm10 0a2.5 2.5 0 1 1 0-5 2.5 2.5 0 0 1 0 5zm10 0a2.5 2.5 0 1 1 0-5 2.5 2.5 0 0 1 0 5zm-140 10a2.5 2.5 0 1 1 0-5 2.5 2.5 0 0 1 0 5zm10 0a2.5 2.5 0 1 1 0-5 2.5 2.5 0 0 1 0 5zm10 0a2.5 2.5 0 1 1 0-5 2.5 2.5 0 0 1 0 5zm10 0a2.5 2.5 0 1 1 0-5 2.5 2.5 0 0 1 0 5zm10 0a2.5 2.5 0 1 1 0-5 2.5 2.5 0 0 1 0 5zm10 0a2.5 2.5 0 1 1 0-5 2.5 2.5 0 0 1 0 5zm10 0a2.5 2.5 0 1 1 0-5 2.5 2.5 0 0 1 0 5zm10 0a2.5 2.5 0 1 1 0-5 2.5 2.5 0 0 1 0 5zm10 0a2.5 2.5 0 1 1 0-5 2.5 2.5 0 0 1 0 5zm10 0a2.5 2.5 0 1 1 0-5 2.5 2.5 0 0 1 0 5zm10 0a2.5 2.5 0 1 1 0-5 2.5 2.5 0 0 1 0 5zm10 0a2.5 2.5 0 1 1 0-5 2.5 2.5 0 0 1 0 5zm10 0a2.5 2.5 0 1 1 0-5 2.5 2.5 0 0 1 0 5zm10 0a2.5 2.5 0 1 1 0-5 2.5 2.5 0 0 1 0 5zm10 0a2.5 2.5 0 1 1 0-5 2.5 2.5 0 0 1 0 5zm10-120a2.5 2.5 0 1 1 0-5 2.5 2.5 0 0 1 0 5zm10 0a2.5 2.5 0 1 1 0-5 2.5 2.5 0 0 1 0 5zm10 0a2.5 2.5 0 1 1 0-5 2.5 2.5 0 0 1 0 5zm10 0a2.5 2.5 0 1 1 0-5 2.5 2.5 0 0 1 0 5zm10 0a2.5 2.5 0 1 1 0-5 2.5 2.5 0 0 1 0 5zm10 0a2.5 2.5 0 1 1 0-5 2.5 2.5 0 0 1 0 5zm10 0a2.5 2.5 0 1 1 0-5 2.5 2.5 0 0 1 0 5zm10 0a2.5 2.5 0 1 1 0-5 2.5 2.5 0 0 1 0 5zm10 0a2.5 2.5 0 1 1 0-5 2.5 2.5 0 0 1 0 5zm10 0a2.5 2.5 0 1 1 0-5 2.5 2.5 0 0 1 0 5zm10 0a2.5 2.5 0 1 1 0-5 2.5 2.5 0 0 1 0 5zm10 0a2.5 2.5 0 1 1 0-5 2.5 2.5 0 0 1 0 5zm10 0a2.5 2.5 0 1 1 0-5 2.5 2.5 0 0 1 0 5zm10 0a2.5 2.5 0 1 1 0-5 2.5 2.5 0 0 1 0 5zm10 0a2.5 2.5 0 1 1 0-5 2.5 2.5 0 0 1 0 5zm-140 10a2.5 2.5 0 1 1 0-5 2.5 2.5 0 0 1 0 5zm10 0a2.5 2.5 0 1 1 0-5 2.5 2.5 0 0 1 0 5zm10 0a2.5 2.5 0 1 1 0-5 2.5 2.5 0 0 1 0 5zm10 0a2.5 2.5 0 1 1 0-5 2.5 2.5 0 0 1 0 5zm10 0a2.5 2.5 0 1 1 0-5 2.5 2.5 0 0 1 0 5zm10 0a2.5 2.5 0 1 1 0-5 2.5 2.5 0 0 1 0 5zm10 0a2.5 2.5 0 1 1 0-5 2.5 2.5 0 0 1 0 5zm10 0a2.5 2.5 0 1 1 0-5 2.5 2.5 0 0 1 0 5zm10 0a2.5 2.5 0 1 1 0-5 2.5 2.5 0 0 1 0 5zm10 0a2.5 2.5 0 1 1 0-5 2.5 2.5 0 0 1 0 5zm10 0a2.5 2.5 0 1 1 0-5 2.5 2.5 0 0 1 0 5zm10 0a2.5 2.5 0 1 1 0-5 2.5 2.5 0 0 1 0 5zm10 0a2.5 2.5 0 1 1 0-5 2.5 2.5 0 0 1 0 5zm10 0a2.5 2.5 0 1 1 0-5 2.5 2.5 0 0 1 0 5zm10 0a2.5 2.5 0 1 1 0-5 2.5 2.5 0 0 1 0 5zm-140 10a2.5 2.5 0 1 1 0-5 2.5 2.5 0 0 1 0 5zm10 0a2.5 2.5 0 1 1 0-5 2.5 2.5 0 0 1 0 5zm10 0a2.5 2.5 0 1 1 0-5 2.5 2.5 0 0 1 0 5zm10 0a2.5 2.5 0 1 1 0-5 2.5 2.5 0 0 1 0 5zm10 0a2.5 2.5 0 1 1 0-5 2.5 2.5 0 0 1 0 5zm10 0a2.5 2.5 0 1 1 0-5 2.5 2.5 0 0 1 0 5zm10 0a2.5 2.5 0 1 1 0-5 2.5 2.5 0 0 1 0 5zm10 0a2.5 2.5 0 1 1 0-5 2.5 2.5 0 0 1 0 5zm10 0a2.5 2.5 0 1 1 0-5 2.5 2.5 0 0 1 0 5zm10 0a2.5 2.5 0 1 1 0-5 2.5 2.5 0 0 1 0 5zm10 0a2.5 2.5 0 1 1 0-5 2.5 2.5 0 0 1 0 5zm10 0a2.5 2.5 0 1 1 0-5 2.5 2.5 0 0 1 0 5zm10 0a2.5 2.5 0 1 1 0-5 2.5 2.5 0 0 1 0 5zm10 0a2.5 2.5 0 1 1 0-5 2.5 2.5 0 0 1 0 5zm10 0a2.5 2.5 0 1 1 0-5 2.5 2.5 0 0 1 0 5zm-140 10a2.5 2.5 0 1 1 0-5 2.5 2.5 0 0 1 0 5zm10 0a2.5 2.5 0 1 1 0-5 2.5 2.5 0 0 1 0 5zm10 0a2.5 2.5 0 1 1 0-5 2.5 2.5 0 0 1 0 5zm10 0a2.5 2.5 0 1 1 0-5 2.5 2.5 0 0 1 0 5zm10 0a2.5 2.5 0 1 1 0-5 2.5 2.5 0 0 1 0 5zm10 0a2.5 2.5 0 1 1 0-5 2.5 2.5 0 0 1 0 5zm10 0a2.5 2.5 0 1 1 0-5 2.5 2.5 0 0 1 0 5zm10 0a2.5 2.5 0 1 1 0-5 2.5 2.5 0 0 1 0 5zm10 0a2.5 2.5 0 1 1 0-5 2.5 2.5 0 0 1 0 5zm10 0a2.5 2.5 0 1 1 0-5 2.5 2.5 0 0 1 0 5zm10 0a2.5 2.5 0 1 1 0-5 2.5 2.5 0 0 1 0 5zm10 0a2.5 2.5 0 1 1 0-5 2.5 2.5 0 0 1 0 5zm10 0a2.5 2.5 0 1 1 0-5 2.5 2.5 0 0 1 0 5zm10 0a2.5 2.5 0 1 1 0-5 2.5 2.5 0 0 1 0 5zm10 0a2.5 2.5 0 1 1 0-5 2.5 2.5 0 0 1 0 5zm-140 10a2.5 2.5 0 1 1 0-5 2.5 2.5 0 0 1 0 5zm10 0a2.5 2.5 0 1 1 0-5 2.5 2.5 0 0 1 0 5zm10 0a2.5 2.5 0 1 1 0-5 2.5 2.5 0 0 1 0 5zm10 0a2.5 2.5 0 1 1 0-5 2.5 2.5 0 0 1 0 5zm10 0a2.5 2.5 0 1 1 0-5 2.5 2.5 0 0 1 0 5zm10 0a2.5 2.5 0 1 1 0-5 2.5 2.5 0 0 1 0 5zm10 0a2.5 2.5 0 1 1 0-5 2.5 2.5 0 0 1 0 5zm10 0a2.5 2.5 0 1 1 0-5 2.5 2.5 0 0 1 0 5zm10 0a2.5 2.5 0 1 1 0-5 2.5 2.5 0 0 1 0 5zm10 0a2.5 2.5 0 1 1 0-5 2.5 2.5 0 0 1 0 5zm10 0a2.5 2.5 0 1 1 0-5 2.5 2.5 0 0 1 0 5zm10 0a2.5 2.5 0 1 1 0-5 2.5 2.5 0 0 1 0 5zm10 0a2.5 2.5 0 1 1 0-5 2.5 2.5 0 0 1 0 5zm10 0a2.5 2.5 0 1 1 0-5 2.5 2.5 0 0 1 0 5zm10 0a2.5 2.5 0 1 1 0-5 2.5 2.5 0 0 1 0 5zm-140 10a2.5 2.5 0 1 1 0-5 2.5 2.5 0 0 1 0 5zm10 0a2.5 2.5 0 1 1 0-5 2.5 2.5 0 0 1 0 5zm10 0a2.5 2.5 0 1 1 0-5 2.5 2.5 0 0 1 0 5zm10 0a2.5 2.5 0 1 1 0-5 2.5 2.5 0 0 1 0 5zm10 0a2.5 2.5 0 1 1 0-5 2.5 2.5 0 0 1 0 5zm10 0a2.5 2.5 0 1 1 0-5 2.5 2.5 0 0 1 0 5zm10 0a2.5 2.5 0 1 1 0-5 2.5 2.5 0 0 1 0 5zm10 0a2.5 2.5 0 1 1 0-5 2.5 2.5 0 0 1 0 5zm10 0a2.5 2.5 0 1 1 0-5 2.5 2.5 0 0 1 0 5zm10 0a2.5 2.5 0 1 1 0-5 2.5 2.5 0 0 1 0 5zm10 0a2.5 2.5 0 1 1 0-5 2.5 2.5 0 0 1 0 5zm10 0a2.5 2.5 0 1 1 0-5 2.5 2.5 0 0 1 0 5zm10 0a2.5 2.5 0 1 1 0-5 2.5 2.5 0 0 1 0 5zm10 0a2.5 2.5 0 1 1 0-5 2.5 2.5 0 0 1 0 5zm10 0a2.5 2.5 0 1 1 0-5 2.5 2.5 0 0 1 0 5zm-140 10a2.5 2.5 0 1 1 0-5 2.5 2.5 0 0 1 0 5zm10 0a2.5 2.5 0 1 1 0-5 2.5 2.5 0 0 1 0 5zm10 0a2.5 2.5 0 1 1 0-5 2.5 2.5 0 0 1 0 5zm10 0a2.5 2.5 0 1 1 0-5 2.5 2.5 0 0 1 0 5zm10 0a2.5 2.5 0 1 1 0-5 2.5 2.5 0 0 1 0 5zm10 0a2.5 2.5 0 1 1 0-5 2.5 2.5 0 0 1 0 5zm10 0a2.5 2.5 0 1 1 0-5 2.5 2.5 0 0 1 0 5zm10 0a2.5 2.5 0 1 1 0-5 2.5 2.5 0 0 1 0 5zm10 0a2.5 2.5 0 1 1 0-5 2.5 2.5 0 0 1 0 5zm10 0a2.5 2.5 0 1 1 0-5 2.5 2.5 0 0 1 0 5zm10 0a2.5 2.5 0 1 1 0-5 2.5 2.5 0 0 1 0 5zm10 0a2.5 2.5 0 1 1 0-5 2.5 2.5 0 0 1 0 5zm10 0a2.5 2.5 0 1 1 0-5 2.5 2.5 0 0 1 0 5zm10 0a2.5 2.5 0 1 1 0-5 2.5 2.5 0 0 1 0 5zm10 0a2.5 2.5 0 1 1 0-5 2.5 2.5 0 0 1 0 5zm-140 10a2.5 2.5 0 1 1 0-5 2.5 2.5 0 0 1 0 5zm10 0a2.5 2.5 0 1 1 0-5 2.5 2.5 0 0 1 0 5zm10 0a2.5 2.5 0 1 1 0-5 2.5 2.5 0 0 1 0 5zm10 0a2.5 2.5 0 1 1 0-5 2.5 2.5 0 0 1 0 5zm10 0a2.5 2.5 0 1 1 0-5 2.5 2.5 0 0 1 0 5zm10 0a2.5 2.5 0 1 1 0-5 2.5 2.5 0 0 1 0 5zm10 0a2.5 2.5 0 1 1 0-5 2.5 2.5 0 0 1 0 5zm10 0a2.5 2.5 0 1 1 0-5 2.5 2.5 0 0 1 0 5zm10 0a2.5 2.5 0 1 1 0-5 2.5 2.5 0 0 1 0 5zm10 0a2.5 2.5 0 1 1 0-5 2.5 2.5 0 0 1 0 5zm10 0a2.5 2.5 0 1 1 0-5 2.5 2.5 0 0 1 0 5zm10 0a2.5 2.5 0 1 1 0-5 2.5 2.5 0 0 1 0 5zm10 0a2.5 2.5 0 1 1 0-5 2.5 2.5 0 0 1 0 5zm10 0a2.5 2.5 0 1 1 0-5 2.5 2.5 0 0 1 0 5zm10 0a2.5 2.5 0 1 1 0-5 2.5 2.5 0 0 1 0 5zm-140 10a2.5 2.5 0 1 1 0-5 2.5 2.5 0 0 1 0 5zm10 0a2.5 2.5 0 1 1 0-5 2.5 2.5 0 0 1 0 5zm10 0a2.5 2.5 0 1 1 0-5 2.5 2.5 0 0 1 0 5zm10 0a2.5 2.5 0 1 1 0-5 2.5 2.5 0 0 1 0 5zm10 0a2.5 2.5 0 1 1 0-5 2.5 2.5 0 0 1 0 5zm10 0a2.5 2.5 0 1 1 0-5 2.5 2.5 0 0 1 0 5zm10 0a2.5 2.5 0 1 1 0-5 2.5 2.5 0 0 1 0 5zm10 0a2.5 2.5 0 1 1 0-5 2.5 2.5 0 0 1 0 5zm10 0a2.5 2.5 0 1 1 0-5 2.5 2.5 0 0 1 0 5zm10 0a2.5 2.5 0 1 1 0-5 2.5 2.5 0 0 1 0 5zm10 0a2.5 2.5 0 1 1 0-5 2.5 2.5 0 0 1 0 5zm10 0a2.5 2.5 0 1 1 0-5 2.5 2.5 0 0 1 0 5zm10 0a2.5 2.5 0 1 1 0-5 2.5 2.5 0 0 1 0 5zm10 0a2.5 2.5 0 1 1 0-5 2.5 2.5 0 0 1 0 5zm10 0a2.5 2.5 0 1 1 0-5 2.5 2.5 0 0 1 0 5zm-140 10a2.5 2.5 0 1 1 0-5 2.5 2.5 0 0 1 0 5zm10 0a2.5 2.5 0 1 1 0-5 2.5 2.5 0 0 1 0 5zm10 0a2.5 2.5 0 1 1 0-5 2.5 2.5 0 0 1 0 5zm10 0a2.5 2.5 0 1 1 0-5 2.5 2.5 0 0 1 0 5zm10 0a2.5 2.5 0 1 1 0-5 2.5 2.5 0 0 1 0 5zm10 0a2.5 2.5 0 1 1 0-5 2.5 2.5 0 0 1 0 5zm10 0a2.5 2.5 0 1 1 0-5 2.5 2.5 0 0 1 0 5zm10 0a2.5 2.5 0 1 1 0-5 2.5 2.5 0 0 1 0 5zm10 0a2.5 2.5 0 1 1 0-5 2.5 2.5 0 0 1 0 5zm10 0a2.5 2.5 0 1 1 0-5 2.5 2.5 0 0 1 0 5zm10 0a2.5 2.5 0 1 1 0-5 2.5 2.5 0 0 1 0 5zm10 0a2.5 2.5 0 1 1 0-5 2.5 2.5 0 0 1 0 5zm10 0a2.5 2.5 0 1 1 0-5 2.5 2.5 0 0 1 0 5zm10 0a2.5 2.5 0 1 1 0-5 2.5 2.5 0 0 1 0 5zm10 0a2.5 2.5 0 1 1 0-5 2.5 2.5 0 0 1 0 5zm-140 10a2.5 2.5 0 1 1 0-5 2.5 2.5 0 0 1 0 5zm10 0a2.5 2.5 0 1 1 0-5 2.5 2.5 0 0 1 0 5zm10 0a2.5 2.5 0 1 1 0-5 2.5 2.5 0 0 1 0 5zm10 0a2.5 2.5 0 1 1 0-5 2.5 2.5 0 0 1 0 5zm10 0a2.5 2.5 0 1 1 0-5 2.5 2.5 0 0 1 0 5zm10 0a2.5 2.5 0 1 1 0-5 2.5 2.5 0 0 1 0 5zm10 0a2.5 2.5 0 1 1 0-5 2.5 2.5 0 0 1 0 5zm10 0a2.5 2.5 0 1 1 0-5 2.5 2.5 0 0 1 0 5zm10 0a2.5 2.5 0 1 1 0-5 2.5 2.5 0 0 1 0 5zm10 0a2.5 2.5 0 1 1 0-5 2.5 2.5 0 0 1 0 5zm10 0a2.5 2.5 0 1 1 0-5 2.5 2.5 0 0 1 0 5zm10 0a2.5 2.5 0 1 1 0-5 2.5 2.5 0 0 1 0 5zm10 0a2.5 2.5 0 1 1 0-5 2.5 2.5 0 0 1 0 5zm10 0a2.5 2.5 0 1 1 0-5 2.5 2.5 0 0 1 0 5zm10 0a2.5 2.5 0 1 1 0-5 2.5 2.5 0 0 1 0 5zm-140 10a2.5 2.5 0 1 1 0-5 2.5 2.5 0 0 1 0 5zm10 0a2.5 2.5 0 1 1 0-5 2.5 2.5 0 0 1 0 5zm10 0a2.5 2.5 0 1 1 0-5 2.5 2.5 0 0 1 0 5zm10 0a2.5 2.5 0 1 1 0-5 2.5 2.5 0 0 1 0 5zm10 0a2.5 2.5 0 1 1 0-5 2.5 2.5 0 0 1 0 5zm10 0a2.5 2.5 0 1 1 0-5 2.5 2.5 0 0 1 0 5zm10 0a2.5 2.5 0 1 1 0-5 2.5 2.5 0 0 1 0 5zm10 0a2.5 2.5 0 1 1 0-5 2.5 2.5 0 0 1 0 5zm10 0a2.5 2.5 0 1 1 0-5 2.5 2.5 0 0 1 0 5zm10 0a2.5 2.5 0 1 1 0-5 2.5 2.5 0 0 1 0 5zm10 0a2.5 2.5 0 1 1 0-5 2.5 2.5 0 0 1 0 5zm10 0a2.5 2.5 0 1 1 0-5 2.5 2.5 0 0 1 0 5zm10 0a2.5 2.5 0 1 1 0-5 2.5 2.5 0 0 1 0 5zm10 0a2.5 2.5 0 1 1 0-5 2.5 2.5 0 0 1 0 5zm10 0a2.5 2.5 0 1 1 0-5 2.5 2.5 0 0 1 0 5zm-140 10a2.5 2.5 0 1 1 0-5 2.5 2.5 0 0 1 0 5zm10 0a2.5 2.5 0 1 1 0-5 2.5 2.5 0 0 1 0 5zm10 0a2.5 2.5 0 1 1 0-5 2.5 2.5 0 0 1 0 5zm10 0a2.5 2.5 0 1 1 0-5 2.5 2.5 0 0 1 0 5zm10 0a2.5 2.5 0 1 1 0-5 2.5 2.5 0 0 1 0 5zm10 0a2.5 2.5 0 1 1 0-5 2.5 2.5 0 0 1 0 5zm10 0a2.5 2.5 0 1 1 0-5 2.5 2.5 0 0 1 0 5zm10 0a2.5 2.5 0 1 1 0-5 2.5 2.5 0 0 1 0 5zm10 0a2.5 2.5 0 1 1 0-5 2.5 2.5 0 0 1 0 5zm10 0a2.5 2.5 0 1 1 0-5 2.5 2.5 0 0 1 0 5zm10 0a2.5 2.5 0 1 1 0-5 2.5 2.5 0 0 1 0 5zm10 0a2.5 2.5 0 1 1 0-5 2.5 2.5 0 0 1 0 5zm10 0a2.5 2.5 0 1 1 0-5 2.5 2.5 0 0 1 0 5zm10 0a2.5 2.5 0 1 1 0-5 2.5 2.5 0 0 1 0 5zm10 0a2.5 2.5 0 1 1 0-5 2.5 2.5 0 0 1 0 5z" data-reactid="54"></path></svg>